<?xml version="1.0" encoding="UTF-8"?>
<!-- Created with Inkscape (http://www.inkscape.org/) -->
<svg width="837" height="822" version="1.1" viewBox="0 0 837 822" xmlns="http://www.w3.org/2000/svg" xmlns:cc="http://creativecommons.org/ns#" xmlns:dc="http://purl.org/dc/elements/1.1/" xmlns:rdf="http://www.w3.org/1999/02/22-rdf-syntax-ns#"><metadata><rdf:RDF><cc:Work rdf:about=""><dc:format>image/svg+xml</dc:format><dc:type rdf:resource="http://purl.org/dc/dcmitype/StillImage"/><dc:title/></cc:Work></rdf:RDF></metadata><path d="m401.48 743.96-5-.2958-13-1.9858-12-1.6238-12-1.6239-8.5954-2.3789-8.5954-2.379-16.809-7.1935-15-8.153-5.4791-5.0641-.66295.66296-.66295.66295-14.195-7.8248-20-2.2218-11-1.6958-17-3.3992-19-6.0672-18-8.4065-18-13.701-17-14.454-25.085-25.702-10.072-12-15.089-20-13.06-20-11.999-21.604-12.974-28.396-8.0543-23-4.1538-13.378-2.9106-12.311-2.9105-12.311-1.0731-6.7543-1.0731-6.7543-1.0378-6.7457-1.0378-6.7457-.98154-11.5-.98155-11.5-.006-36.656 2.0306-24.344.95092-5.5.95093-5.5 3.2478-18.936 5.739-23.205 5.2885-16.859 9.9637-26 12.781-26.681 15.144-25.319 14.98-21 17.424-20.969 19-19.834 22-19.062 18.131-13.46 22.869-14.897 26-14.244 24.52-10.116 22.48-5.8375 15-2.9798 19-2.9833 32-3.2095 13.383-1.9079h63.796l31.821 3.0205 20 2.9628 20.054 4.8778 11.946 4.3242 18.646 7.0778 28.354 14.237 21 12.575 17.499 12.522 17.067 13.569 22.433 20.511 21 23.417 20 26.733 15.979 25.673 14.418 29 9.8073 25 5.1865 16 4.3482 16 3.8398 18 3.7321 25 1.1041 10 1.1041 10v41l-1.1041 10-1.1041 10-3.6963 25-4.0608 19-.98202 3.5-.98203 3.5-3.6701 12-3.6701 12-9.5364 24-8.0899 17.431-11.3 20.569-20.647 31-15.311 19-19.329 20.841-22.036 19.867-19.613 12.96-20.387 9.661-24.741 8.1792-19.259 4.0917-15 2.1452-15.835 7.9456-20.911 12.046-22.255 10.562-12.469 4.1884-18.531 3.164-15 1.7416-17-.2526zm47.878-7.2457 10.878-1.9921 11.245-3.5085 31.448-15.696-.57754-4.7006-.57754-4.7006-3.9796-14-1.3607-1.4472-21.452 12.761-20.501 10.436-.65177.62504-.65178.62504 4.6431 9.9938-.7867.78671-8.3092-7.5069-10.244 1.1051-13 3.1797-26 4.1335-31-1.1738-12.34-2.5181-1.2149-1.2211 7.1922-5.4857 4.3623 1.0854 19 5.3674 23 .91225 30-6.3498 10-1.9606 9-5.7212 15.5-7.3486v-1.4578l-8.5-2.7797-11.827-11.456-1.6731 1.034-.0153 2.191-.0153 2.191-.82076 1.2938-.82077 1.2938-9.8278-3.2933-16-6.5793-16.5-8.0647-23.5 11.546-14 5.1778-8 2.1189-17.964 4.1738-7.0364 2.9636 4 3.0291 9.2149 4.7297 6.2851 5.2886v3.5012l-4.7266 2.1536-12.246-5.8326h-2.0277v1.7168l10.603 7.0399 8.4128 4.2919 13.484 4.8258 20 4.9879 6 .9872 43-.7595 10.878-1.9921zm68.272-30.296 9.0791-6.4261 8.7716-3.1133 17.782-2.3602 19.218-6.1548 21-8.9278 17.556-8.7457 11.444-8.8306 24-21.915 17.088-18.828 11.354-13.546 13.718-19.454 4.7306-12 8.3937-8.5901 15.402-30.7-.6871-3.244-13 15.815-4.3811 11.719-.1132-7 4.002-24 1.2873-16.5h-4.9067l-12.579 4.2479-12.309 8.2521-7.439 11-.061 3.3346 8.5 3.2042 18 1.5372-28.92 1.5859-8.7102 5.1045-10.88 9.9436-2.9898-1.1473.002-1.2814.002-1.2814 20.919-13.724.57726-16.235 18.911-10.245 1.839-2.9154-3.1507-13.813.8059-.80591 5.5948 9.4846 3.0367 3.9 12.963-4.8455 2.4969-41.801-1.0397-12.5-1.0397-12.5-.57407-2-.57406-2-12.909-32.693 1.1259-2.9341.90922.56192.90922.56193 4.1369 13.62 4.5588 6.7288 2.8073.92328-1.3478-17.854 1.1181-3.2074 1.1181-3.2074h1.5066l.86372 36.75.86371 36.75-.21434 36-4.2488 32.8.53974.53973.53973.53974 1.4279-1.9397 1.4279-1.9397 12.312-17 4.0073-7.9544 4.0073-7.9544 2.3427-7.8269 2.3427-7.8269 5.1736-21.063 5.0555-29.374 1.122-20.795 1.122-20.795-1.1742-21.205-1.1742-21.205-2.4277-14-2.4277-14-2.6286-10.694-2.6286-10.694-9.0836-27.612-8.7119-21.278-10.38-20.722-11.061-19-14.699-21.565-12.141-15.435-20.908-23.288-24.442-22.024-18-13.896-21-14.025-23-12.84-15-7.1929-22-9.0046-20-6.1934-11-2.0947-21-2.9718-35.661-1.8574-33.339 1.8524-14 2.8321-14 3.0758-27 9.3913-11 5.0133-11.279 7.6469-9.2617 10.576-1.8786 5-1.8786 5 .8218.85764 13.182-13.576 12.294-5.4976 7-1.339 22-3.7462 8.4513-1.2143 4.3263 8.5158 8.575 12.047 12.367 24.953.78083.83333.43428-.43428.43429-.43428-3.9895-14.965-5.6165-10-13.36-17.709.7607-2.2908 26.836-.6365 24.5 1.3379v1.3494l-15.047 19.762-2.9539 6.1894-2.9539 6.1894-1.1056 5.1551-1.1056 5.1551.7298 2.1894 10.615-21.691 15.191-24.5h1.6388l19.491 5.0995 6.5 2.0556v1.4285l-9.1782 8.9164-15.479 18-8.6489 12.841-6.6572 16.159.0266 4 9.4472-18 8.2898-12.096 13.32-15.904 11.309-13.5h2.4977l10.362 4.0844 10.212 6.7838 1.774 3.0109 1.774 3.0109 1.9086 5.9744 1.9086 5.9744 1.5674 3.031 1.5674 3.031v1.9872l-12.054 5.4094-6.2385 7.1053 2.134.71135 9.8339-4.9832 9.1812-7.0082 1.8477 2.3775 11.013 20 9.0384 17 10.441 23.621 8.8941 26.379 6.7828 34 1.1996 9.5 1.1996 9.5.22628 22-2.5538 43-1.0327 9.5-1.0327 9.5-2.91 16.01-13.109 37.99-11.104 33.374 6.9722 12.626.62461 2.5.6246 2.5 14.103 11.752-.87909.87908-12.145-6.131h-2.8459l-20.483 21.453-2.3621 3.5694-2.3621 3.5694-3.8162 27.908-1.2016 15.761-1.2016 15.761 3.0052 4.5865 10.21 11.172v1.3326l-5.6718-3.3504-11.136 3.2373-7.6922.02-11 4.9391 5-3.4527 9.6524-8.9222 2.0907-3.9066 2.77-13.177 1.3135-41.776-2.1831.77554-21.966 20.493-10.516 17.507-10.467 13-16.194 15.953v5.2338l-4 11.626.0402 2.1869 9.4599 4.3224-15.025.1776-28.975 29.153-14 10.492-11.164 7.3269-3.1332 3.5282-2.5502 9.6476-2.5502 9.6476-1.3778 15.205h3.2488l20.527-7.7126 22.5-10.604v-1.6406l-10-13.706v-1.3368h3.8744l26.626-11.781 7.8875-2.165.24684.24683.24683.24684-22.327 10.91-7.5537 7.7836.008 2.2588 8.5135 3.5h2.5734l28.906-19.439v-6.5611h-3.1452l4.1452-5.2697.20472-5.2303 1.5402 6.4877 2.5 3.0123h2.9622l16.293-14.62 15-12.13 18.056-18.75 11.944-14.652 17-23.809 13.374-23.539 13.998-28.202 8.2728-19.798 5.6303-17 5.0142-17 5.0541-21 .5975-2.75.59749-2.75h3.1845l-.55841 3.25-.55842 3.25-1.2981 12-5.8994 23.379-3.3328 9.8103-3.3328 9.8103-8.2427 21.519v1.7212l8.9865 2.516 1.5933-1.3223 1.5933-1.3223 7.8828-15.678 9.2013-14.433 10.743-16.223v-2.0219l-2.4837-7.6087-2.4837-7.6087-1.5778-6.937-1.5778-6.937.31151-4.332.3115-4.332 4.4395 6.9296 8.245 22.479 2.8296 2.3483 8.486-5.4952 21.478-22.195 3.0348-6.3954.62617-5.9909.62617-5.9909 1.6516-2.6723 2.4176 2.4176-2.4008 36.216-3.9768 38.262-3.9567 25.454v6.1336h1.8342l9.3316-4h1.1442l-3.81 4.2396-10.447 6.7018-.48027 2.2793-.48026 2.2793-2.1079 11-7.4624 29.355 1.3375 1.3375 9.4318-6.4892-1.2827 5.1106-.61125 1.5929-.61126 1.5929h3.4666l12.049-6.1229-1.1268 27.623-5.4204 15-1.8976 3.75-1.8976 3.75h10.041v1.9619l-5.5 1.1768-8.524 3.0359-6.339 9.3254-11.939 14.54-16.198 13.639-13 10.059-14.255 9.0921-11.745 6.02-8 3.3109-12 3.8134-3.8668.0258 30.939-31.5 9.2014-11 15.072-23.169 13.037-24.831 9.8166-25.068 5.17-19.932 1.3236-13.131-11.474-17.869-6.7199-10.207.004-2.8965.004-2.8965 4.4916-7 .52464 7.5.52465 7.5 9.6995 19 4.0714 5.7572 2.6121-6.7572 4.1216-20 3.9326-21 1.9339-9 1.9339-9 .53631-11.014.53632-11.014 2.004-9.9726 1.8886-11-.84691-.86155-34.615 34.862-13.977 19-17.176 25-11.996 15.636-10.453 10.952-.77216-.77217 6.517-17.291 7.5514-.0258-3.4941-6.5-.70772 4.587-3.6301-1.1522-10.77 19.565-2.3105 5-2.3861 7.7778-6.8296 5.9965-1.8239 3.4081 5.4004 7.8031 12.103 20.015 13.43.59213 8.4418-9.2759 3.6182-1.9364-11.393 17.12-1.1998-.008-6.5483-3.9925h-2.1417l5.31 9.0608-5.8313 7.4392-5.6453 9-18.33 36.377 7.2767 1.2294 5.2761-2.006 4.4262-5.9868 11.208-4.2896 4.5941-1.8242 3.4059.088-16.991 8.4121-.63376 3.3843 6.6244 3.5433-15 1.4872-15.422 2.3175-2.8856 4.4039-19.063 22.659-1.2965 5.1026-1.2965 5.1026.0632 15 2.5545 4.6551 1.2084-.46373 1.2084-.46372 9.0791-6.4261zm-135.15-48.802-.61803-1 4.618.1994 5 1.6013-4.191.0997-4.191.0996zm62.616-33.5-.16327-4-2.4451-5.9479-2.445-5.9479.43758-.24762 19-13.039 9.5903-5.5603 1.0149 1.0148-7.6052 4.6278-13.371 10.583-1.5843 2.5177-2.2656 20zm247.15-225.09.5839-1.9064 6.3256-21-.5574-11.341-.55741-11.341-4.2118-26.318-1.9259-9.8892-1.9259-9.8892.0636-3.2215 2.9549 3.9076 1.0125 3.5462 1.0125 3.5462 5.918 30 1.5192 11.801 1.5192 11.801.0545 4.6988.0545 4.6988 2.5764 17-1.5927 2.2186-1.5927 2.2186-1.25.0314-1.25.0315v-10l-1.5.002-5.5751 9.9264-1.12.69218-1.12.69217.58391-1.9064zm-368.27 303.15 8.5-1.4079 9.7042-2.2035 5.2958-2.7751 6.2761-6.6706 3.3644-6.6724 2.8247-13.328.0174-3.75.0173-3.75h-.94713l-14.34 6.9789-17.416 5.9318-14.797 3.8957-9 1.3291-14.303 15.364-1.3646-1.3342 7.1675-11.205.001-.73059.001-.73058-37.502.62819-11-1.5593 10.519-1.0689-21.974-23.593-9.3478-12.148-15.852-26.259-10.791-22.285-8.8636-26.801-6.9001-27.914-5.477-27-4.6293-23-2.2873-21-2.9572-19-1.0075-6-1.0075-6-.57152-2.8858-.57153-2.8858 5.2186 1.3098v-.94928l-4.8964-7.2153-.63044-4.6868-.63045-4.6868-.6848-2-.1724 26 2.1142 30 1.5255 11.5 1.5255 11.5 2.8572 19 3.8183 21.323 4.3382 17.677 2.3376 7.5 2.3376 7.5 1.3745 3.5h-5.8577l-7.1197-5.5-14.353-12-13.384-8.2038.43605-4.3981.43606-4.3981.0639-3.5.064-3.5-11.975-6.3585-.72716.72716 5.1014 6.6882 4.0567 8.9431.022 1.5686.022 1.5686-6.4964 3.0766 11.996 3.4436 8.4214 4.8809 19.131 15.902 8.808 6.06h1.9617l11.375 23.5 2.8245 7.812-.8334.8334-24.688-25.289-6.6641-4.1206.48843-1.8677.48842-1.8677h-4.5234l-1.7893-6.1507-2 .076-1.4039 8.5746 1.1582 13 1.9867 6.5 1.9867 6.5 4.7722 9.4335v2.116l-5.5 2.1889 3 1.0046 6.5931 3.029 9.3384 13.228 11.068 12.711 18 16.084 14.419 9.484 15.581 6.3139 1.6229.70317 1.6229.70318-4.9454 5 .66879-2.2549.66879-2.2549-1.319-.3904-1.319-.39041-12-3.3415-12-4.0486-12.864-6.3193-10.701-9.7605-4.21-7.0865-4.21-7.0865-.70644 3.6683 1.3003 8.6713 5.0413 9.5939 11.35 11.74 13 8.5085 16.584 8.3161 21.416 6.8183 21 4.0602 5 .78457 39 .23744 8.5-1.4079zm237-21.955 4.5-1.3767 11.057-5.0812 13.943-9.4574 18.683-15.081 16.854-17.904 8.6419-12.202 7.159-13 5.2711-16 1.1794-14.5h-1.306l-8.4827 6.1002-13.738 13.4-8.658 10.093-8.7706 4.3802-3.1296 3.5265-15.453 27-10.761 15-22.991 24.899v1.601l1.5-.0216 4.5-1.3767zm-247.2-4.5924 11.791-2.9907 13.905-4.7553 13-5.4644 15.5-9.1802v-1.5244l-33.5-28.191-16.5-13.898v1.2018l9.1962 10.228-1.0937.36456-1.0937.36455-10.509-3.6637-34.374.34421-15.586 4.2759-.86407-2.6201-7.7762-14.785-6.0408-8.78 9.641-10.557 5.651-11.56-.88374-.88374-8.3565 14.066h-8.6592l-8.5634-3.0214-.93447.93447 8.4542 9.5869 13.632 20.368 4.6449 10.632 12.392 24.61-2.3773.73242-9.6986.93443-6.1848-8.7744-1.586 2.4977-.0306 3.8425-3.1321 3.4609 19.632 1.2906 7.5511 1.0904 16.449 20.04.99489 1.388.99488 1.388h2.5231l11.791-2.9907zm194.57.91328 2.6411-2.0775 12.79-16.345 5.4062-5 13.791-27.473v-.99982l-6.5-2.6906-13-2.5765-21 .01-13 2.3864-15.07 4.8546-25.93 22.249-5.5 4.1162v3.5488l3.8392 10.575.65733 3.2385.65732 3.2385 2.0752 1.2825-.71601-7.1298-.71602-7.1298h1.2474l15.456 7.7184 13 4.5602 21 5.5724 6.2303.149 2.6411-2.0775zm-104.99-58.673-.42748-5.75-.94899-17.5-.94898-17.5-3.2032-15-4.9844-10.286-17.491-19.714-3.6589-5.7215-3.6589-5.7216-8.3613-6.0569h-2.4811l-.97438 6.5-1.2114 5.9583-1.2114 5.9583-2.5092 3.5823-.62221-23.249-.6222-23.249-3.0503-16.93-3.1785-9.5697h-1.6842l-1.0245 3.25-1.0245 3.25-2.1403 20-.64926 3.5-.64925 3.5-.71531-3-.7153-3-.11832-16.261-.11831-16.261 1.5118-9.7392 1.5118-9.7392.49648-2.207.49647-2.207-23.937-14.116-4.8507-6.4703-4.3705-8.6988-8.1126-8.8012h7.2547l-.0238-1.5-11.904-6.5381-4.673-6.4619-2.6757-8-5.6675-12.074-7.2943-8.5218.65097-.65098.65098-.65097 12.436 6.2806 8.5 5.2304v-1.9847l-21.5-15.453-11.331-8.6752h-2.4408l.6757 4.75.67569 4.75 1.0207 11.472 1.0207 11.472 1.3783 6.5279 1.3783 6.5279 5.1446 14.5 5.1446 14.5 11.654 35 3.2462 10.5 3.2462 10.5 3.5714 7.193 11.329 13.807 14.464 21 21.627 36 9.8221 14.597 21.606 23.563 1.0449 3.4197 1.0449 3.4198 1.7667 5.8805 1.7666 5.8805-6.8559 5.8651 11.39-.78156 15.564 15.655h1.3573l-.42748-5.75zm24.048-22.633 2.5696-7.8718v-3.5563l21.668-23.024 14.983-22.664 16.679-28 9.99-15 15.599-20.319 4.081-6.6811 7.1767-23 4.7734-14.5 4.7734-14.5 12.466-34.797 2.6513-14.203 2.1185-17 .55477-5.25.55478-5.25h-1.7942l-23.775 15.927-9 8.2282 13-7.296 8-3.6451 5-1.4284-10.532 10.81-6.9787 17.905-3.4893 6.6055-9.0246 5.7979-7.3387 3.0663-1.419 2.296 11.523-1.4397-6.9749 6.9749-7.5711 12.699-5.1946 5.6595-18 10.678-3.6414 2.7387 1.5725 8.9617 1.5725 8.9617 1.271 22-1.4671 21.5h-1.5298l-1.2606-11.5-1.8421-16-.70688-2.7936-.70688-2.7936-2.099.69968-1.4241 3.9437-1.4241 3.9437-2.7914 11-1.3412 53.5h-1.4675l-.76132-1.75-.76131-1.75-1.646-8.996-1.646-8.996-3.0316-.58384-9.1393 8.0447-6.641 10.531-15.602 16.648-3.9712 8.2045-3.9712 8.2045-3.0429 31.764v22.977l17.861-17.81zm67.885 22.864 6.8154-1.4804h18.627l22.742 3.9793 1.364.0208 7.2348-14.196 4.9013-7.7641v-2.1256l-7.7149-10.414-10.557-19-2.2281-1.4694-4.0941-.0306-7.0316 7.5-15.284 19.309-22.59 23.697-4 4.8085 5-1.3532 6.8154-1.4804zm-125.83-5.4564.59656-.96525-3.1181-6.0298-5.1783-1.2997-1.7547 2.7707-.0153 1.7954-.0153 1.7955 4.9866 4.9866 3.902-2.0883.59656-.96526zm-52.485-4.369v-.34501l-4.5-3.81 3.81 4.5h.69002zm303.01-12.105 8.1933-9.4503.85015-.29966.85015-.29965 11.098-10.708v-1.792h-12.906l-4.7826 2.1791-2.2945 4.6605-2.2945 4.6604-4.3613 9.7704-4.3613 9.7704v.95912h1.8155zm-308.77 6.2004-1.0028-1.25-17.512-22-18.399-28-9.0754-16-10.02-20-10.417-23-4.7814-14.5-4.7814-14.5-7.1055-27-.5928-2.75-.59279-2.75h-2.1583l1.3569 12.5 3.8184 19 10.886 33 5.3221 13 12.956 25.888 5.2089 9.1119 8.648 14.466v1.9857l-3.9925 6.5483-.004.8067-.004.80671 4.445-3.1134h4.4408l11.29 14.5 22.324 24.471.74489.0292-1.0028-1.25zm13.12-19.026 1.7448-1.2758-6.1977-8.5557-1.7129-4.5053-1.2069-24.178-1.2069-24.178-.14148-1.7655-.14147-1.7655 4.5.47642-.0908-1.4764-9.8867-10.856-.44693.44693-.44694.44693.88023 8.481.88024 8.481 1.0218 10 1.0218 10 2.327 12.676-.62948 6.162-.62947 6.162-1.2277 6.5h3.917l1.7201 1.9007 1.7201 1.9007-2.1791 1.3467-6.0859-1.3367-5.274-2.7362-.9124.9124 1.8277 2.0196 1.8277 2.0196 12.166 3.786 1.1177.187 1.7448-1.2758zm-207.86-8.6588-.0775-5.9346-1.602-1.8154-1.602-1.8154-5.1206-17-1.9782-13-.29913-10.68-.29912-10.68 1.164-1.164 17.574 5.0927.71426-.71426.84475-6.1769.84474-6.1769h-1.6176l-3.2925 6.5-1.4642 1.6724-1.4642 1.6724-12.306-4.6262-.70558-3.3593-.70557-3.3592-1.5661-38-.82387 14-.82388 14 2.1443 36 1.2335 15-5.1901-4.7668-9.4482-14.233-3.8732-5 .73422 3.5.73421 3.5 10.119 22.85 9.8026 18.15 8.079 12.5h.34831l-.0775-5.9346zm380.58 3.9346h.91821v-3.7667l-1.75-.45387-1.75-.45388-2.5.84116v3.5l.69777.69776.69776.69777 2.768-1.0622zm-85.614-45.25 2.579-2.25 4.1912-15 4.0578-8 12.849-13.31.40554-2.8451.40555-2.8451 1.0355-19.988 1.0355-19.988 3.6223-7.0238 1.5893-3 1.5894-3 1.0862-6.0602 1.0862-6.0602v-5.3796h-1.589l-7.0815 9.5-2.0472 3.5-2.0472 3.5-4.131 12-.53477 19.741-.53478 19.741-1.5519 3.7142-1.5519 3.7142-7.6777 10.09-10.14 10.5h-6.1713l-12.929-13.121-5.9952-8.7137-3.0176-11.585-.0698-27.08-2.6984-15.125-4.5039-8.8284-7.6835-10.401-2.0444-1.2635v9.0196l2.2639 10.556 2.1919 3.5211 2.1919 3.5211 1.1935 4.5 1.1935 4.5.94732 19.847.94731 19.847 14.056 14.797 3.8719 8.5094 3.4335 14.584 4.979 3.9165h8.6188l2.579-2.25zm-162.4-10.5-2.8838-7.75-1.3961-3.5h-1.6409l-4.1452 5.2697v2.3842l11.437 11.346h1.5128zm140.09-2.6365-2.0139-4.5527-9.0242-8.7705-6.1152-2.533v-11.881l-2.6098-9.1882-2.6098-9.1882-2.6402-4.2482-2.6402-4.2482-1.7718-.004.65594 4.75.65593 4.75.57529 10 .5753 10-1.8829 11.468 1.5962 1.4371 1.5961 1.4371 26.791 16.199.43789-.4379.4379-.43789-2.0139-4.5527zm43.749-2.798 11.598-7.1304 3.6494-2.1963.24526-21.192.24527-21.192-.9492.58664-.94921.58664-3.2526 7.1111-3.2526 7.1111-1.1182 6.5819-1.1182 6.5819v9.0704l-8.5 5.5219-4.7393 4.2439-2.4236 3.7986-2.4236 3.7986-1.9508 5.1311 1.6708-.64116 1.6708-.64115zm55.975-1.8129 5.057-3.9973 18.385-24.505 10.491-11.152 2.1789-7.8477.012-1.8425-3.31-3.6575h-4.2002l-4.6658 12.033-8.4615 10.467-11.205 15-11.158 17.805v1.6948h1.8204l5.057-3.9973zm-79.135-7.2527 3.1348-3.25 2.1227-5.6302v-12.704l-4.2387-9.6658-1.822-7-1.8477-33.129-2.3435-5.8712-1.814 6-.931 14.5-.93101 14.5-1.927 10-4.4935 10-.1516 14.186 1.4523 2.9071 1.4523 2.9071 4.9696 5.5h4.2335l3.1348-3.25zm-186.56-15.888-1.9062-3.3622-5.9423-10-10.525-16.778 4.9495-10.222 3.0398-11 .67989-4.8778.6799-4.8778 1.1136-3.2443-2.713 2.5985-2.713 2.5985-7.3818 19.803-2.074 3.5498-8.6441-3.0498h-3.0242l15.849 16.509 19.896 27.584.31143-.93431.31144-.9343zm196.81-30.999v-8.1367l2.1411-18.227 2.8417-18.528 4.3504-13.472 4.5038-10.188 9.9387-15.225 6.2768-19.938 8.0313-12.027 15.873-15.622 16.904-11 .1392-1.3353-7.9484-3.6647-.0258-.88678-.0258-.88677 10.871-22.226 9.0884-27.226 1.594-6.3868 1.594-6.3868 1.7753-8 1.6244-7 1.6244-7 2.7423-31 .0431-6.191.0431-6.191-.78739-.48663-.78739-.48664-23.925 2.364.0942 31.991 2.0902 4 2.0902 4 2.1127 6.8553 2.1127 6.8553v9.1136l-3.5 11.165-7.1827 7.1938-9.203 2.3173h-6.205l1.308-7.5 6.0113-11 4.4828-6 4.4594-8.7552 1.109-10.745h-2.1178l-9.1462 16.779-3.6129 3.1722-3.6129 3.1721-.93744-.93744 2.8844-5.6859 2.6032-8.1167 2.6032-8.1167 3.0567-17.529-.0628-26.238-4.0792-22-2.0761-13 .96026-36-6.0475 12.776-.64107 16.792-.64106 16.792-22.922 23.641-14.229 17-10 15-5.3591 10.625-2.0288 5.3751 1.8034-2 15.626-22.992 15.073-19.008 22.699-22.5h1.53l2.414 19.5-.02 27.429-3.9607 20.432-2.0227 2.0227.64908-17.192.64978-17.192h-2.5702l-13.533 10.032-12.859 13.631-12.284 18.365-2.9839 6.4466-2.9839 6.4466-1.5503 5.2204-1.5503 5.2204v19.281l3.3385 9.8563 3.663 6.5635-5.2018 10.265-11.3 17.171.0965 38 .0966 38 2.3766 24 .92266 8 .92267 8 1.8692 23.604 3.5258 3.896h2.69zm9.0554-100.61 1.7896-9.75 1.1129-2.9084 1.113-2.9084 5.9333-6.7577 1.4979-3.5849 1.4979-3.5849v-5.6377l.85704-.52968.85704-.52967 2.5564 4.7207 2.5564 4.7207 2.0772 11.348-.81865 2.8545-.81866 2.8545-4.0972 7.9431-7.6695 7.3034-7.9704 4.1966h-2.2639zm20.548-41.5-4.517-9.25 14.414-14.071 12.871-14.518 1.8217 3.2552-.372 13.167-.372 13.167-3.6613 7-10.219 10.5h-5.4478zm-11.966-25-.64776-6.25-4.158-19.797 4.0795-5.2028 9.7691-14 6.5468-16 2.0182-2.5h1.678l1.9855 7.5 2.0035 12 1.5266 9 1.5266 9 .035 8.549-8.0441 12.737-9.0767 8.3666-6.815 2.8475h-1.7793l-.64776-6.25zm-8.6372 158.31v-.94099l-1.7318-1.0703.81548-5.5477 1.0415-6 1.0415-6 5.0386-15.671 6.8928-12.195 6.848-9.3289 14.653-13.919 26.901-15.57 10.938-8.3163 14.619-13.808 15.437-19.192 13.432-15.71 2.5371-5.0913 2.5371-5.0913-.0318-6.5536-.0318-6.5537-3.0427 4-13.283 24-6.9187 11-12.501 16-9.691 9.144-10 8.0258-12 7.9853-15.246 8.3448h-2.4678l1.4968-3.5.9747-5.7082-2.2067 1.181-2.2067 1.181-14.841 14.098-10.03 13.53-7.7785 16.718-3.293 13-1.8205 6-1.337 13.305.6894 4.5973.68941 4.5973h3.8774v-.94098zm-45.026-22.059-1.1793-7.5-2.5-7.4814-2.5-7.4814-6.0689-12.037-7.5904-11.19-10.063-11.01-11.124-8.5822-.88417.88417 2.2701 7.3966-.61823.61824-.61824.61823-17.599-9.5134-14-9.5246-10.376-8.9514-10.132-10.986-3.6825-4.7594-6.8707-10-8.2551-14-12.343-22-2.0363-2 .75234 15 4.8734 9.651 13.834 16.349 14.631 18.161 14.606 14.534 12 9.0372 29 17.215 13.063 13.052 8.1878 11 2.4988 4.5598 2.4988 4.5598 2.5795 7.4735 2.5795 7.4735 1.272 8.9333 2.0816 7 2.2394 2.8265.32687-5.9133.32687-5.9133zm-273.67-3.9656.19138-1.4656-6-1.0816-.69974-4.9499 2.1137-14.037 2.4594-18.435 2.3177 1.9235 1.7941 3.9785 1.794 3.9785 1.6444-1.0163-1.889-4.9684-1.5173-6.5424-1.5173-6.5424v-19.597l3.1272-27.779 1.8617-7 .012-4.5h-1.5251l-2.7912 14.25-2.7912 14.25-1.4641 11-1.4641 11-2.9338 43-.012 36 7.0993-20 .19139-1.4656zm271.22-59.284-.70619-2.25-2.7474-13-.0367-2.8376-.0368-2.8376-9.4162-8.5251-1.0838-10.641-1.1532-.38022-1.1532-.38023-5.1936 10.978v11.88l1.4979 3.5849 1.4979 3.5849 3.2521 3.7126 3.2521 3.7126 8.8916 5.6493h3.8417l-.70618-2.25zm84.108-6.3523 10.865-6.6023 10.281-10.011 5.1766-10.572.67257-5.7225.67256-5.7225-4.0913 2.1896-14.832 9.8223-12.514 13.657-6.7308 14.064-.67569 2.75-.6757 2.75h.98726zm-147.17-33.148.68636-2.75 3.9195-6.3581 8.9246-4.3203v-.51872l-12.949-27.121-5.193-13.682-4.9751-15-4.9392-20-2.9281-23-.016-29.5 5.5.0238 11 2.9525 3.945.0238-4.4943-3.1479-18.982-2.2212-2.3457 2.3457-.0617 8.2618-.0618 8.2618 1.3313 13 1.3313 13 3.4154 14.5 3.4154 14.5 3.1553 11 3.6586 11 3.6586 11 11.352 23-.65908.25397-.65907.25396-6.6204 4.0359-2.8796 6.892v6.0642h1.7832l.68636-2.75zm32.04-31.549-13.509-13.799-.0198.79883-.0198.79884-1.9887 13.757 3.0573 16.117 4.9615 8.4661 11.415 7.1402 9.613-19.48-13.509-13.799zm49.765 28.549-.66271-1.75-12.612-20.832v-2.3474l6.1859-17.82.54359-5.2173.54359-5.2173-2.339-11.889-6.6368-16.905-9.6941-16.297-14.169-16.474-16.805-13.5h-2.0953l21.196 21.5 11.09 13.315 6.7627 10.685 5.1891 12.106 1.7505 7.2023 1.7505 7.2023-1.0122 12.61-7.1729 17.594 4.36 8.6812 4.3599 8.6812 8.2388 10.423h1.8907zm-283.27-9.25v-1h-.88197l-1.2361 2h2.118zm169.42-20.765-.0799-4.0624-4.9232-9.6725-8.1394-15-5.5296-17-.68506-2.5h-1.789l-3.1354 10.5-.65081 5.8274-.65082 5.8274 5.4899 8.3451 11.974 16 6.1179 6.5271 2.0814-.72976-.0799-4.0624zm86.292-6.2349 1.2532-10.5.64618-5.1406.64617-5.1406-9.7572-13.485-11-22.011-1.9446.1722-4.1099 17.434-3.182-4.8563-5.1707-14.334-1.1482-8.6282-1.1482-8.6282.35175-24.391.35176-24.391 1.1437-1.1433 1.1437-1.1433 14.52 13.325 11.203 12.363 11.217 14 17.096 24.47.90284 2.53 1.1566-1.0495-7.0964-13.951-10.709-16-13.578-16.971-23.253-23.375-.4916-15.327-.49161-15.327-2.118-6.5-2.118-6.5-4.2052-6 .54222 3 .54221 3 1.2038 10.699 1.2038 10.699-1.193 11.801-1.1929 11.801-3.0016 15-.98416 8-.98415 8 1.1899 23 1.4364 7.5 1.4364 7.5 5.3144 14.866 9.8513 9.3962-1.1735 11.105-1.1736 11.105 2.4269 5.264 2.4269 5.264 9.57 10.588 7.2357 3.8637 3.9586-.45153 1.2532-10.5zm159.29 3.3565 5.5-6.5021 10.364-15.919-.53039-3.7177-.53038-3.7178-1.7919-7-.006-2.75-.005-2.75h-1.7269l-5.419 12.5-14.854 29.407v6.7592l.59777.59776.59776.59777 2.3045-1.0036zm-194.31-25.892-.5737-3.5353-5.1686-11.29-7.255-8.8537-1.3015-3.643-1.3015-3.643-.0878-14.5h-1.8747l-6.4296 13.06-.95358 14.859 1.1662 4.6314 1.1662 4.6314 4.3959 5.9458 6.7459 4.1692 6.2836 1.4984 5.7617.20472zm84.312-102.58v-1l-2 1.2361v2l2-1.2361zm-93-11.805v-.92328l-2.4833-2.9512-2.4832-2.9512-10.533-5.0498-4.5-1.3361v1.9132l3.5 4.2468 15 7.9221 1.5.0526v-.92327z"/></svg>
